<mxfile host="app.diagrams.net" modified="2022-07-27T10:04:04.472Z" agent="5.0 (Windows NT 10.0; Win64; x64) AppleWebKit/537.36 (KHTML, like Gecko) Chrome/103.0.0.0 Safari/537.36" etag="ewLPt5ULTHFUAzGOIzEw" version="20.0.2" type="github">
  <diagram name="Page-1" id="74e2e168-ea6b-b213-b513-2b3c1d86103e">
    <mxGraphModel dx="1385" dy="781" grid="1" gridSize="10" guides="1" tooltips="1" connect="1" arrows="1" fold="1" page="1" pageScale="1" pageWidth="1100" pageHeight="850" background="none" math="0" shadow="0">
      <root>
        <mxCell id="0" />
        <mxCell id="1" parent="0" />
        <mxCell id="77e6c97f196da883-1" value="Pool" style="swimlane;html=1;childLayout=stackLayout;startSize=20;rounded=0;shadow=0;labelBackgroundColor=none;strokeWidth=1;fontFamily=Verdana;fontSize=8;align=center;" parent="1" vertex="1">
          <mxGeometry x="70" y="40" width="1720" height="750" as="geometry" />
        </mxCell>
        <mxCell id="77e6c97f196da883-2" value="putty" style="swimlane;html=1;startSize=20;" parent="77e6c97f196da883-1" vertex="1">
          <mxGeometry y="20" width="1090" height="730" as="geometry" />
        </mxCell>
        <mxCell id="77e6c97f196da883-8" value="Click putty" style="rounded=1;whiteSpace=wrap;html=1;shadow=0;labelBackgroundColor=none;strokeWidth=1;fontFamily=Verdana;fontSize=8;align=center;" parent="77e6c97f196da883-2" vertex="1">
          <mxGeometry x="20" y="65" width="100" height="60" as="geometry" />
        </mxCell>
        <mxCell id="_vYEzEPV6xVNBA0gidSj-5" value="" style="edgeStyle=orthogonalEdgeStyle;rounded=0;orthogonalLoop=1;jettySize=auto;html=1;" edge="1" parent="77e6c97f196da883-2" source="_vYEzEPV6xVNBA0gidSj-1" target="_vYEzEPV6xVNBA0gidSj-4">
          <mxGeometry relative="1" as="geometry" />
        </mxCell>
        <mxCell id="_vYEzEPV6xVNBA0gidSj-1" value="Input IP" style="whiteSpace=wrap;html=1;fontSize=8;fontFamily=Verdana;rounded=1;shadow=0;labelBackgroundColor=none;strokeWidth=1;" vertex="1" parent="77e6c97f196da883-2">
          <mxGeometry x="150" y="65" width="120" height="60" as="geometry" />
        </mxCell>
        <mxCell id="_vYEzEPV6xVNBA0gidSj-2" value="" style="edgeStyle=orthogonalEdgeStyle;rounded=0;orthogonalLoop=1;jettySize=auto;html=1;" edge="1" parent="77e6c97f196da883-2" source="77e6c97f196da883-8" target="_vYEzEPV6xVNBA0gidSj-1">
          <mxGeometry relative="1" as="geometry" />
        </mxCell>
        <mxCell id="_vYEzEPV6xVNBA0gidSj-7" value="" style="edgeStyle=orthogonalEdgeStyle;rounded=0;orthogonalLoop=1;jettySize=auto;html=1;" edge="1" parent="77e6c97f196da883-2" source="_vYEzEPV6xVNBA0gidSj-4" target="_vYEzEPV6xVNBA0gidSj-6">
          <mxGeometry relative="1" as="geometry" />
        </mxCell>
        <mxCell id="_vYEzEPV6xVNBA0gidSj-4" value="Click Open" style="whiteSpace=wrap;html=1;fontSize=8;fontFamily=Verdana;rounded=1;shadow=0;labelBackgroundColor=none;strokeWidth=1;" vertex="1" parent="77e6c97f196da883-2">
          <mxGeometry x="300" y="65" width="120" height="60" as="geometry" />
        </mxCell>
        <mxCell id="_vYEzEPV6xVNBA0gidSj-10" value="" style="edgeStyle=orthogonalEdgeStyle;rounded=0;orthogonalLoop=1;jettySize=auto;html=1;" edge="1" parent="77e6c97f196da883-2" source="_vYEzEPV6xVNBA0gidSj-6" target="_vYEzEPV6xVNBA0gidSj-9">
          <mxGeometry relative="1" as="geometry" />
        </mxCell>
        <mxCell id="_vYEzEPV6xVNBA0gidSj-6" value="Input login id" style="whiteSpace=wrap;html=1;fontSize=8;fontFamily=Verdana;rounded=1;shadow=0;labelBackgroundColor=none;strokeWidth=1;" vertex="1" parent="77e6c97f196da883-2">
          <mxGeometry x="450" y="65" width="120" height="60" as="geometry" />
        </mxCell>
        <mxCell id="_vYEzEPV6xVNBA0gidSj-12" value="" style="edgeStyle=orthogonalEdgeStyle;rounded=0;orthogonalLoop=1;jettySize=auto;html=1;" edge="1" parent="77e6c97f196da883-2" source="_vYEzEPV6xVNBA0gidSj-9" target="_vYEzEPV6xVNBA0gidSj-11">
          <mxGeometry relative="1" as="geometry" />
        </mxCell>
        <mxCell id="_vYEzEPV6xVNBA0gidSj-9" value="keybord Enter" style="whiteSpace=wrap;html=1;fontSize=8;fontFamily=Verdana;rounded=1;shadow=0;labelBackgroundColor=none;strokeWidth=1;" vertex="1" parent="77e6c97f196da883-2">
          <mxGeometry x="600" y="65" width="120" height="60" as="geometry" />
        </mxCell>
        <mxCell id="_vYEzEPV6xVNBA0gidSj-16" value="" style="edgeStyle=orthogonalEdgeStyle;rounded=0;orthogonalLoop=1;jettySize=auto;html=1;" edge="1" parent="77e6c97f196da883-2" source="_vYEzEPV6xVNBA0gidSj-11" target="_vYEzEPV6xVNBA0gidSj-15">
          <mxGeometry relative="1" as="geometry" />
        </mxCell>
        <mxCell id="_vYEzEPV6xVNBA0gidSj-11" value="Input Password" style="whiteSpace=wrap;html=1;fontSize=8;fontFamily=Verdana;rounded=1;shadow=0;labelBackgroundColor=none;strokeWidth=1;" vertex="1" parent="77e6c97f196da883-2">
          <mxGeometry x="750" y="65" width="120" height="60" as="geometry" />
        </mxCell>
        <mxCell id="_vYEzEPV6xVNBA0gidSj-15" value="keyboard Enter" style="whiteSpace=wrap;html=1;fontSize=8;fontFamily=Verdana;rounded=1;shadow=0;labelBackgroundColor=none;strokeWidth=1;" vertex="1" parent="77e6c97f196da883-2">
          <mxGeometry x="900" y="65" width="120" height="60" as="geometry" />
        </mxCell>
        <mxCell id="77e6c97f196da883-3" value="Lane 2" style="swimlane;html=1;startSize=20;" parent="77e6c97f196da883-1" vertex="1">
          <mxGeometry x="1090" y="20" width="30" height="730" as="geometry" />
        </mxCell>
        <mxCell id="77e6c97f196da883-4" value="Lane 3" style="swimlane;html=1;startSize=20;" parent="77e6c97f196da883-1" vertex="1">
          <mxGeometry x="1120" y="20" width="50" height="730" as="geometry" />
        </mxCell>
        <mxCell id="77e6c97f196da883-5" value="Lane 4" style="swimlane;html=1;startSize=20;" parent="77e6c97f196da883-1" vertex="1">
          <mxGeometry x="1170" y="20" width="160" height="730" as="geometry" />
        </mxCell>
        <mxCell id="77e6c97f196da883-6" value="Lane 5" style="swimlane;html=1;startSize=20;" parent="77e6c97f196da883-1" vertex="1">
          <mxGeometry x="1330" y="20" width="160" height="730" as="geometry" />
        </mxCell>
        <mxCell id="77e6c97f196da883-7" value="Lane 6" style="swimlane;html=1;startSize=20;" parent="77e6c97f196da883-1" vertex="1">
          <mxGeometry x="1490" y="20" width="160" height="730" as="geometry" />
        </mxCell>
      </root>
    </mxGraphModel>
  </diagram>
</mxfile>
